<svg width="20" height="20" viewBox="0 0 20 20" fill="none" xmlns="http://www.w3.org/2000/svg">
<g opacity="0.5">
<path fill-rule="evenodd" clip-rule="evenodd" d="M17.5 5.83366C18.8807 5.83366 20 6.95295 20 8.33366V16.667C20 18.2778 18.6942 19.5837 17.0833 19.5837H2.91667C1.30584 19.5837 0 18.2778 0 16.667V2.08366C0 1.16318 0.746192 0.416992 1.66667 0.416992H14.1667C15.0871 0.416992 15.8333 1.16318 15.8333 2.08366V5.83366H17.5ZM1.66667 16.667C1.66667 17.3573 2.22631 17.917 2.91667 17.917L13.855 17.9162C13.9839 17.9161 14.1054 17.8565 14.1843 17.7546C14.2632 17.6527 14.2905 17.5201 14.2583 17.3953C14.1972 17.1574 14.1664 16.9127 14.1667 16.667V2.50033C14.1667 2.27021 13.9801 2.08366 13.75 2.08366H2.08333C1.85321 2.08366 1.66667 2.27021 1.66667 2.50033V16.667ZM18.3333 16.667C18.3333 17.3573 17.7737 17.917 17.0833 17.917C16.393 17.917 15.8333 17.3573 15.8333 16.667V7.91699C15.8333 7.68687 16.0199 7.50033 16.25 7.50033H17.5C17.9602 7.50033 18.3333 7.87342 18.3333 8.33366V16.667ZM4.585 3.75033C4.0097 3.75033 3.54333 4.21669 3.54333 4.79199V8.75033C3.54333 9.32562 4.0097 9.79199 4.585 9.79199H7.29333C7.86863 9.79199 8.335 9.32562 8.335 8.75033V4.79199C8.335 4.2167 7.86863 3.75033 7.29333 3.75033H4.585ZM10.6258 5.03949H12.2925C12.6377 5.03949 12.9175 5.31931 12.9175 5.66449V6.08116C12.9175 6.42634 12.6377 6.70616 12.2925 6.70616H10.6258C10.4603 6.7066 10.3014 6.64127 10.184 6.52452C10.0666 6.40778 10.0004 6.2492 10 6.08366V5.66699C9.99956 5.50072 10.0653 5.34111 10.1827 5.22338C10.3001 5.10566 10.4596 5.03949 10.6258 5.03949ZM12.2925 8.37283H10.6258C10.4596 8.37283 10.3001 8.43899 10.1827 8.55672C10.0653 8.67444 9.99956 8.83406 10 9.00033V9.41699C10.0014 9.76152 10.2813 10.04 10.6258 10.0395H12.2925C12.6377 10.0395 12.9175 9.75967 12.9175 9.41449V8.99783C12.9175 8.65265 12.6377 8.37283 12.2925 8.37283ZM3.95917 11.7062H12.2925C12.6377 11.7062 12.9175 11.986 12.9175 12.3312V12.7478C12.9175 13.093 12.6377 13.3728 12.2925 13.3728H3.95917C3.61464 13.3733 3.33471 13.0949 3.33333 12.7503V12.3337C3.33289 12.1674 3.39863 12.0078 3.51605 11.89C3.63346 11.7723 3.7929 11.7062 3.95917 11.7062ZM10.2083 15.0395H3.95833C3.79214 15.0395 3.63279 15.1057 3.51551 15.2234C3.39822 15.3412 3.33267 15.5008 3.33333 15.667V16.0837C3.33425 16.4281 3.61394 16.7066 3.95833 16.7062H10.2083C10.5535 16.7062 10.8333 16.4263 10.8333 16.0812V15.6645C10.8333 15.3193 10.5535 15.0395 10.2083 15.0395Z" fill="#1D1D1B"/>
</g>
</svg>
