<svg width="20" height="20" viewBox="0 0 20 20" fill="none" xmlns="http://www.w3.org/2000/svg">
<g opacity="0.5">
<path fill-rule="evenodd" clip-rule="evenodd" d="M0 10C0 4.47715 4.47715 0 10 0C15.5204 0.00597071 19.994 4.47963 20 10C20 15.5228 15.5228 20 10 20C4.47715 20 0 15.5228 0 10ZM2.29167 10C2.29167 14.2572 5.74281 17.7083 10 17.7083C14.2553 17.7037 17.7037 14.2553 17.7083 10C17.7083 5.74281 14.2572 2.29167 10 2.29167C5.74281 2.29167 2.29167 5.74281 2.29167 10Z" fill="black"/>
<path fill-rule="evenodd" clip-rule="evenodd" d="M3.54199 10.0003C3.54199 6.43349 6.43349 3.54199 10.0003 3.54199C13.5655 3.54613 16.4545 6.4352 16.4587 10.0003C16.4587 13.5672 13.5672 16.4587 10.0003 16.4587C6.43349 16.4587 3.54199 13.5672 3.54199 10.0003ZM13.3337 11.2503C13.5638 11.2503 13.7503 11.0638 13.7503 10.8337V9.16699C13.7503 8.93687 13.5638 8.75033 13.3337 8.75033H11.667C11.4369 8.75033 11.2503 8.56378 11.2503 8.33366V6.66699C11.2503 6.43687 11.0638 6.25033 10.8337 6.25033H9.16699C8.93687 6.25033 8.75033 6.43687 8.75033 6.66699V8.33366C8.75033 8.56378 8.56378 8.75033 8.33366 8.75033H6.66699C6.43687 8.75033 6.25033 8.93687 6.25033 9.16699V10.8337C6.25033 11.0638 6.43687 11.2503 6.66699 11.2503H8.33366C8.56378 11.2503 8.75033 11.4369 8.75033 11.667V13.3337C8.75033 13.5638 8.93687 13.7503 9.16699 13.7503H10.8337C11.0638 13.7503 11.2503 13.5638 11.2503 13.3337V11.667C11.2503 11.4369 11.4369 11.2503 11.667 11.2503H13.3337Z" fill="black"/>
</g>
</svg>
