<?xml version="1.0" encoding="iso-8859-1"?>
<!-- Uploaded to: SVG Repo, www.svgrepo.com, Generator: SVG Repo Mixer Tools -->
<svg height="800px" width="800px" version="1.1" id="Capa_1" xmlns="http://www.w3.org/2000/svg" xmlns:xlink="http://www.w3.org/1999/xlink" 
	 viewBox="0 0 404.204 404.204" xml:space="preserve">
<g>
	<g>
		<path style="fill:#010002;" d="M316.953,395.112c-3.35,0-6.706-1.033-9.567-3.106l-105.279-76.5L96.829,392.001
			c-5.706,4.15-13.429,4.15-19.14,0c-5.706-4.145-8.088-11.487-5.912-18.199l40.211-123.771L6.709,173.546
			c-5.706-4.15-8.088-11.493-5.912-18.199s8.425-11.243,15.48-11.243h130.135l40.211-123.771c2.176-6.706,8.431-11.243,15.48-11.243
			c7.049,0,13.304,4.536,15.48,11.243l40.211,123.771h130.135c7.054,0,13.304,4.536,15.48,11.243s-0.207,14.049-5.912,18.199
			l-105.268,76.49l40.211,123.771c2.176,6.706-0.207,14.049-5.912,18.199C323.676,394.078,320.314,395.112,316.953,395.112z
			 M202.107,279.118c3.356,0,6.717,1.033,9.567,3.106l74.33,53.999l-28.397-87.373c-2.176-6.706,0.207-14.049,5.912-18.199
			l74.33-53.999h-91.877c-7.044,0-13.293-4.536-15.48-11.243l-28.386-87.384l-28.386,87.384c-2.187,6.706-8.441,11.243-15.48,11.243
			H66.364l74.33,53.999c5.706,4.15,8.088,11.493,5.912,18.199l-28.392,87.373l74.33-53.999
			C195.39,280.152,198.757,279.118,202.107,279.118z"/>
	</g>
</g>
</svg>