<svg width="20" height="20" viewBox="0 0 20 20" fill="none" xmlns="http://www.w3.org/2000/svg">
<g opacity="0.5">
<path fill-rule="evenodd" clip-rule="evenodd" d="M18.125 1.45801H1.875C0.840037 1.45939 0.0013772 2.29804 0 3.33301V12.4997C0.0013772 13.5346 0.840037 14.3733 1.875 14.3747H8.54167C8.77179 14.3747 8.95833 14.5612 8.95833 14.7913V16.0413C8.95833 16.2715 8.77179 16.458 8.54167 16.458H6.04167C5.46637 16.458 5 16.9244 5 17.4997C5 18.075 5.46637 18.5413 6.04167 18.5413H13.9583C14.5336 18.5413 15 18.075 15 17.4997C15 16.9244 14.5336 16.458 13.9583 16.458H11.4583C11.2282 16.458 11.0417 16.2715 11.0417 16.0413V14.7913C11.0417 14.5612 11.2282 14.3747 11.4583 14.3747H18.125C19.16 14.3733 19.9986 13.5346 20 12.4997V3.33301C19.9986 2.29804 19.16 1.45939 18.125 1.45801ZM17.9167 11.8747C17.9167 12.1048 17.7301 12.2913 17.5 12.2913H2.5C2.26988 12.2913 2.08333 12.1048 2.08333 11.8747V3.95801C2.08333 3.72789 2.26988 3.54134 2.5 3.54134H17.5C17.7301 3.54134 17.9167 3.72789 17.9167 3.95801V11.8747Z" fill="#1D1D1B"/>
</g>
</svg>
